<svg width="18" height="18" viewBox="0 0 18 18" fill="none" xmlns="http://www.w3.org/2000/svg">
<path d="M6.56203 14.1781C6.50125 14.1349 6.4175 14.1466 6.36655 14.2012C5.68567 14.9302 3.94313 15.4416 3.86331 14.4466C3.86331 13.667 3.68889 13.0101 3.49684 12.2868C3.26164 11.401 3 10.4156 3 8.98344C3 5.56833 5.7901 3 9.0982 3C12.4063 3 15 5.69371 15 9.01659C15 12.3395 12.3237 14.9669 9.1295 14.9669C7.99625 14.9669 7.44632 14.8066 6.56203 14.1781ZM9.19098 5.96106C7.62105 5.87842 6.39595 6.97199 6.1258 8.68357C5.90208 10.101 6.29873 11.8281 6.638 11.915C6.7819 11.9519 7.1282 11.686 7.38015 11.4475C7.42753 11.4027 7.49913 11.3951 7.55468 11.4292C7.94743 11.6703 8.39208 11.8515 8.8823 11.8773C10.494 11.9621 11.9223 10.6959 12.0067 9.07783C12.0911 7.45978 10.8027 6.04591 9.19098 5.96106Z" fill="black"/>
</svg>
