<svg width="18" height="18" viewBox="0 0 18 18" fill="none" xmlns="http://www.w3.org/2000/svg">
<path d="M2.25838 9.13755L5.6291 10.4019L6.93378 14.6186C7.01726 14.8886 7.34586 14.9885 7.56398 14.8092L9.44287 13.2699C9.63982 13.1086 9.92035 13.1006 10.1262 13.2508L13.515 15.7234C13.7484 15.8938 14.0789 15.7653 14.1374 15.482L16.6199 3.4812C16.6838 3.17169 16.3812 2.91348 16.088 3.02747L2.25443 8.39058C1.91305 8.52289 1.91603 9.00862 2.25838 9.13755ZM6.72352 9.72884L13.3112 5.65132C13.4296 5.57825 13.5514 5.73913 13.4497 5.83391L8.01298 10.9127C7.82188 11.0915 7.69861 11.3308 7.6637 11.5904L7.4785 12.9697C7.45397 13.1539 7.19656 13.1722 7.14599 12.9939L6.43372 10.4788C6.35215 10.1919 6.47103 9.88546 6.72352 9.72884Z" fill="black"/>
</svg>
