<svg width="16" height="16" viewBox="0 0 16 16" fill="none" xmlns="http://www.w3.org/2000/svg">
<g clip-path="url(#clip0_1831_1489)">
<path d="M8.0005 11.3033C10.3523 11.3033 12.2588 9.39674 12.2588 7.04494C12.2588 4.69313 10.3523 2.78662 8.0005 2.78662C5.6487 2.78662 3.74219 4.69313 3.74219 7.04494C3.74219 9.39674 5.6487 11.3033 8.0005 11.3033Z" fill="white"/>
<path d="M13.0039 2.07258C11.6673 0.736063 9.89031 0 8.00015 0C6.10999 0 4.33296 0.736063 2.99644 2.07258C1.65989 3.40916 0.923828 5.18616 0.923828 7.07632C0.923828 10.4109 3.25507 13.2898 6.49368 13.9914L8.00015 16L9.50665 13.9913C12.7452 13.2898 15.0765 10.4109 15.0765 7.07632C15.0765 5.18616 14.3404 3.40916 13.0039 2.07258ZM8.00015 1.84736C10.8662 1.84736 13.1978 4.17904 13.1978 7.04501C13.1978 9.91098 10.8662 12.2427 8.00015 12.2427C5.13415 12.2427 2.8025 9.91098 2.8025 7.04501C2.8025 4.17904 5.13415 1.84736 8.00015 1.84736Z" fill="white"/>
</g>
<defs>
<clipPath id="clip0_1831_1489">
<rect width="16" height="16" fill="white"/>
</clipPath>
</defs>
</svg>
