<svg width="16" height="16" viewBox="0 0 16 16" fill="none" xmlns="http://www.w3.org/2000/svg">
<path fill-rule="evenodd" clip-rule="evenodd" d="M10.773 8.786L14.0715 12.887C13.892 12.961 13.698 13 13.5 13C11.0785 13 4.9215 13 2.5 13C2.302 13 2.108 12.961 1.9285 12.887L5.227 8.786C5.6835 9.2405 6.3045 9.5 6.9565 9.5H9.0435C9.6955 9.5 10.316 9.2405 10.773 8.786ZM1.183 3.782L4.576 8L1.183 12.218C1.064 11.9995 1 11.753 1 11.5C1 9.7685 1 6.2315 1 4.5C1 4.247 1.064 4.0005 1.183 3.782ZM14.817 3.782C14.936 4.0005 15 4.247 15 4.5V11.5C15 11.753 14.936 11.9995 14.817 12.218L11.424 8L14.817 3.782ZM1.9285 3.113C2.108 3.039 2.302 3 2.5 3H13.5C13.698 3 13.892 3.039 14.0715 3.113L10.174 7.9585C9.8985 8.301 9.483 8.5 9.0435 8.5C8.414 8.5 7.586 8.5 6.9565 8.5C6.517 8.5 6.1015 8.301 5.826 7.9585L1.9285 3.113Z" fill="white"/>
</svg>
