<svg width="151" height="30" viewBox="0 0 151 30" fill="none" xmlns="http://www.w3.org/2000/svg">
<path d="M0.193776 25.7238V25.1909L1.93776 24.3189V3.43957L0 1.50181V0.775146H19.4745V1.50181L17.5367 3.43957V24.3189L19.1354 25.1909V25.7238H12.8861V25.1909L14.6301 24.3189V3.43957L13.6128 2.42224H5.91017L4.89285 3.43957V24.3189L6.4915 25.1909V25.7238H0.193776Z" fill="white"/>
<path d="M85.1157 0.678112V1.211L86.8596 2.08299V24.125L84.9219 24.9001V25.6268H101.248H103.137L104.396 24.9001L102.459 24.125V2.08299L104.057 1.211V0.678112H97.808V1.211L99.552 2.08299V23.3499L98.5346 24.125H90.832L89.8147 23.3499V2.08299L91.4134 1.211V0.678112H85.1157Z" fill="white"/>
<path d="M103.137 25.6268L104.396 24.9001L105.026 29.793L101.248 25.6268H103.137Z" fill="white"/>
<path d="M107.303 0.678112V1.211L109.047 2.08299V24.125L107.109 24.9001V25.6268H123.435H125.324L126.584 24.9001L124.646 24.125V2.08299L126.245 1.211V0.678112H119.995V1.211L121.739 2.08299V23.3499L120.722 24.125H113.02L112.002 23.3499V2.08299L113.601 1.211V0.678112H107.303Z" fill="white"/>
<path d="M125.324 25.6268L126.584 24.9001L127.214 29.793L123.435 25.6268H125.324Z" fill="white"/>
<path fill-rule="evenodd" clip-rule="evenodd" d="M20.9766 25.7239L20.9766 25.2394C20.9766 25.2394 21.8336 25.3847 22.1877 24.2705C23.8348 19.087 29.0667 3.4396 29.0667 3.4396V2.37383L27.5649 0.87207H35.4129L33.9111 2.37383V3.4396L40.1604 24.8034H40.9839V25.7239H34.9769V25.2394C34.9769 25.2394 35.843 24.8558 36.3818 24.2705C37.5845 22.9641 35.7035 19.523 35.7035 19.523C34.2018 17.4399 31.1304 14.3104 27.5649 14.5817C27.5649 14.5817 25.1912 20.395 24.3676 23.9314C24.1646 24.8034 25.6272 24.8034 25.6272 24.8034H26.3054V25.7239H20.9766ZM34.444 15.8413C33.6689 14.3298 29.7934 13.1123 27.9525 12.6924L30.8591 4.3116H31.3436C32.7 8.78459 35.2191 17.3527 34.444 15.8413Z" fill="white"/>
<path fill-rule="evenodd" clip-rule="evenodd" d="M62.3477 25.7239L62.3477 25.2394C62.3477 25.2394 63.2047 25.3847 63.5588 24.2705C65.2059 19.087 70.4378 3.4396 70.4378 3.4396V2.37383L68.936 0.87207H76.784L75.2822 2.37383V3.4396L81.5315 24.8034H82.355V25.7239H76.348V25.2394C76.348 25.2394 77.2141 24.8558 77.7529 24.2705C78.9556 22.9641 77.0746 19.523 77.0746 19.523C75.5729 17.4399 72.5015 14.3104 68.936 14.5817C68.936 14.5817 66.5623 20.395 65.7387 23.9314C65.5357 24.8034 66.9983 24.8034 66.9983 24.8034H67.6765V25.7239H62.3477ZM75.8151 15.8413C75.04 14.3298 71.1645 13.1123 69.3236 12.6924L72.2302 4.3116H72.7147C74.0711 8.78459 76.5902 17.3527 75.8151 15.8413Z" fill="white"/>
<path d="M51.5449 0.82373H61.2773V1.55029L59.3398 3.48779V24.3667L60.9385 25.2388V25.772H54.6885V25.2388L56.4326 24.3667V3.48779L55.416 2.47021H51.5449C51.3027 2.55095 50.7215 2.87778 50.334 3.53662C49.8493 4.36055 47.8762 7.51637 46.8945 10.3188C45.787 13.4808 45.3928 17.488 45.2959 18.7476C45.199 20.0068 45.3441 23.445 45.7314 23.8823C46.0415 24.2311 46.6362 24.7872 46.8945 25.1909V25.5786H42.6797C43.0026 21.3801 43.47 15.3884 45.7314 9.34912C46.7258 6.6939 48.4601 3.74646 48.7832 2.76123L47.8145 1.55029V0.774902H51.5449V0.82373Z" fill="white"/>
<path d="M139.471 0C145.838 0 151.001 5.9215 151.001 13.2256C151.001 20.5295 145.838 26.4502 139.471 26.4502C133.103 26.45 127.942 20.5294 127.941 13.2256C127.941 5.92165 133.103 0.000235297 139.471 0ZM138.866 1.17773C134.431 1.40059 131.106 6.97465 131.439 13.6279C131.773 20.2813 135.64 25.4947 140.075 25.2725C144.511 25.0499 147.837 19.4758 147.503 12.8223C147.169 6.16867 143.302 0.955156 138.866 1.17773Z" fill="white"/>
</svg>
